<?xml version="1.0" encoding="UTF-8"?>
<svg id="Camada_2" data-name="Camada 2" xmlns="http://www.w3.org/2000/svg" viewBox="0 0 32 32">
  <defs>
    <style>
      .cls-1 {
        fill: #383838;
      }

      .cls-2 {
        fill: #d9d9d9;
      }
    </style>
  </defs>
  <g id="Camada_1-2" data-name="Camada 1">
    <g>
      <rect class="cls-2" width="32" height="32" rx="4.33" ry="4.33"/>
      <g>
        <path class="cls-1" d="M28.73,25.61l-2.21-2.21c-1.41-1.41-1.89-3.48-1.26-5.41.55-1.67.64-3.48.25-5.26-.35-1.61-1.31-3.26-2.71-4.66-1.4-1.4-3.05-2.36-4.66-2.71-2.97-.64-6.01.06-8.33,1.93-2.32,1.87-3.65,4.65-3.65,7.63,0,.41.03.82.08,1.23.05.42.29.8.65,1.04.36.24.8.31,1.21.19.64-.18,1.08-.76,1.08-1.41,0-.06,0-.12-.01-.18-.05-.36-.06-.73-.05-1.11.06-1.73.77-3.36,1.99-4.59,1.29-1.3,3.02-2.01,4.85-2.01s3.55.71,4.84,2.01c1.29,1.29,2,3.01,2,4.84,0,1.43-.43,2.79-1.25,3.95-.22.32-.48.62-.75.89-.28.28-.58.53-.89.75-1.15.82-2.52,1.25-3.95,1.25-.63,0-1.25-.08-1.85-.25-.69-.19-1.44.16-1.74.82-.08.19-.13.39-.13.6,0,.66.45,1.25,1.09,1.42.85.24,1.74.36,2.63.36,1.05,0,2.08-.17,3.07-.49,1.92-.63,4-.15,5.41,1.27l2.2,2.21c.28.28.65.43,1.04.43s.76-.15,1.04-.43c.28-.28.43-.65.43-1.04s-.15-.76-.43-1.04Z"/>
        <path class="cls-1" d="M7.86,18.94l-.88-.46c-.22-.12-.46.12-.35.35l.46.88c.31.59.31,1.29,0,1.88l-.46.88c-.12.22.12.46.35.35l.88-.46c.59-.31,1.29-.31,1.88,0l.88.46c.22.12.46-.12.35-.35l-.46-.88c-.31-.59-.31-1.29,0-1.88l.46-.88c.12-.22-.12-.46-.35-.35l-.88.46c-.59.31-1.29.31-1.88,0Z"/>
        <path class="cls-1" d="M20.92,14.61c-.68-1.06-1.82-1.88-3.18-2.27.27.41.43.93.43,1.48,0,1.38-.99,2.5-2.21,2.5s-2.21-1.12-2.21-2.5c0-.56.16-1.07.43-1.48-1.37.39-2.51,1.2-3.18,2.27-.13.2-.13.46,0,.67.96,1.49,2.82,2.51,4.96,2.51s4.01-1.01,4.96-2.51c.13-.2.13-.46,0-.67Z"/>
      </g>
    </g>
  </g>
</svg>